<svg id="visual" viewBox="0 0 900 100" width="900" height="100" xmlns="http://www.w3.org/2000/svg" xmlns:xlink="http://www.w3.org/1999/xlink" version="1.1"><rect x="0" y="0" width="900" height="100" fill="#263238"></rect><path d="M0 39L21.5 44.7C43 50.3 86 61.7 128.8 66.3C171.7 71 214.3 69 257.2 64C300 59 343 51 385.8 51.7C428.7 52.3 471.3 61.7 514.2 60.8C557 60 600 49 642.8 50C685.7 51 728.3 64 771.2 70.5C814 77 857 77 878.5 77L900 77L900 0L878.5 0C857 0 814 0 771.2 0C728.3 0 685.7 0 642.8 0C600 0 557 0 514.2 0C471.3 0 428.7 0 385.8 0C343 0 300 0 257.2 0C214.3 0 171.7 0 128.8 0C86 0 43 0 21.5 0L0 0Z" fill="#ffad42"></path><path d="M0 44L21.5 44.3C43 44.7 86 45.3 128.8 45.8C171.7 46.3 214.3 46.7 257.2 42.8C300 39 343 31 385.8 26.3C428.7 21.7 471.3 20.3 514.2 23C557 25.7 600 32.3 642.8 34C685.7 35.7 728.3 32.3 771.2 33.7C814 35 857 41 878.5 44L900 47L900 0L878.5 0C857 0 814 0 771.2 0C728.3 0 685.7 0 642.8 0C600 0 557 0 514.2 0C471.3 0 428.7 0 385.8 0C343 0 300 0 257.2 0C214.3 0 171.7 0 128.8 0C86 0 43 0 21.5 0L0 0Z" fill="#f57c00"></path></svg>