<svg id="visual" viewBox="0 0 900 100" width="900" height="100" xmlns="http://www.w3.org/2000/svg" xmlns:xlink="http://www.w3.org/1999/xlink" version="1.1"><rect x="0" y="0" width="900" height="100" fill="#263238"></rect><path d="M0 57L25 60.2C50 63.3 100 69.7 150 71C200 72.3 250 68.7 300 64.2C350 59.7 400 54.3 450 54.8C500 55.3 550 61.7 600 61.8C650 62 700 56 750 52.3C800 48.7 850 47.3 875 46.7L900 46L900 0L875 0C850 0 800 0 750 0C700 0 650 0 600 0C550 0 500 0 450 0C400 0 350 0 300 0C250 0 200 0 150 0C100 0 50 0 25 0L0 0Z" fill="#03a9f4"></path><path d="M0 26L25 28.7C50 31.3 100 36.7 150 36.3C200 36 250 30 300 30.5C350 31 400 38 450 38.5C500 39 550 33 600 31.7C650 30.3 700 33.7 750 35.8C800 38 850 39 875 39.5L900 40L900 0L875 0C850 0 800 0 750 0C700 0 650 0 600 0C550 0 500 0 450 0C400 0 350 0 300 0C250 0 200 0 150 0C100 0 50 0 25 0L0 0Z" fill="#67daff"></path></svg>