<svg id="visual" viewBox="0 0 900 100" width="900" height="100" xmlns="http://www.w3.org/2000/svg" xmlns:xlink="http://www.w3.org/1999/xlink" version="1.1"><rect x="0" y="0" width="900" height="100" fill="#263238"></rect><path d="M0 38L25 43.5C50 49 100 60 150 65.7C200 71.3 250 71.7 300 68C350 64.3 400 56.7 450 53.2C500 49.7 550 50.3 600 53.8C650 57.3 700 63.7 750 66.7C800 69.7 850 69.3 875 69.2L900 69L900 0L875 0C850 0 800 0 750 0C700 0 650 0 600 0C550 0 500 0 450 0C400 0 350 0 300 0C250 0 200 0 150 0C100 0 50 0 25 0L0 0Z" fill="#03a9f4"></path><path d="M0 17L25 22C50 27 100 37 150 40C200 43 250 39 300 34.7C350 30.3 400 25.7 450 24.2C500 22.7 550 24.3 600 26.8C650 29.3 700 32.7 750 31C800 29.3 850 22.7 875 19.3L900 16L900 0L875 0C850 0 800 0 750 0C700 0 650 0 600 0C550 0 500 0 450 0C400 0 350 0 300 0C250 0 200 0 150 0C100 0 50 0 25 0L0 0Z" fill="#67daff"></path></svg>