<svg id="visual" viewBox="0 0 900 100" width="900" height="100" xmlns="http://www.w3.org/2000/svg" xmlns:xlink="http://www.w3.org/1999/xlink" version="1.1"><rect x="0" y="0" width="900" height="100" fill="#263238"></rect><path d="M0 68L21.5 64.8C43 61.7 86 55.3 128.8 53.7C171.7 52 214.3 55 257.2 56.7C300 58.3 343 58.7 385.8 60.2C428.7 61.7 471.3 64.3 514.2 61C557 57.7 600 48.3 642.8 47.7C685.7 47 728.3 55 771.2 59.2C814 63.3 857 63.7 878.5 63.8L900 64L900 0L878.5 0C857 0 814 0 771.2 0C728.3 0 685.7 0 642.8 0C600 0 557 0 514.2 0C471.3 0 428.7 0 385.8 0C343 0 300 0 257.2 0C214.3 0 171.7 0 128.8 0C86 0 43 0 21.5 0L0 0Z" fill="#ffad42"></path><path d="M0 25L21.5 28C43 31 86 37 128.8 36.2C171.7 35.3 214.3 27.7 257.2 28.5C300 29.3 343 38.7 385.8 41.2C428.7 43.7 471.3 39.3 514.2 38.2C557 37 600 39 642.8 40C685.7 41 728.3 41 771.2 39.5C814 38 857 35 878.5 33.5L900 32L900 0L878.5 0C857 0 814 0 771.2 0C728.3 0 685.7 0 642.8 0C600 0 557 0 514.2 0C471.3 0 428.7 0 385.8 0C343 0 300 0 257.2 0C214.3 0 171.7 0 128.8 0C86 0 43 0 21.5 0L0 0Z" fill="#f57c00"></path></svg>