<svg id="visual" viewBox="0 0 900 100" width="900" height="100" xmlns="http://www.w3.org/2000/svg" xmlns:xlink="http://www.w3.org/1999/xlink" version="1.1"><rect x="0" y="0" width="900" height="100" fill="#263238"></rect><path d="M0 38L21.5 36.3C43 34.7 86 31.3 128.8 29.5C171.7 27.7 214.3 27.3 257.2 32.8C300 38.3 343 49.7 385.8 53C428.7 56.3 471.3 51.7 514.2 51.7C557 51.7 600 56.3 642.8 54.5C685.7 52.7 728.3 44.3 771.2 39C814 33.7 857 31.3 878.5 30.2L900 29L900 101L878.5 101C857 101 814 101 771.2 101C728.3 101 685.7 101 642.8 101C600 101 557 101 514.2 101C471.3 101 428.7 101 385.8 101C343 101 300 101 257.2 101C214.3 101 171.7 101 128.8 101C86 101 43 101 21.5 101L0 101Z" fill="#ffad42"></path><path d="M0 54L21.5 53.7C43 53.3 86 52.7 128.8 55.7C171.7 58.7 214.3 65.3 257.2 69.5C300 73.7 343 75.3 385.8 73.7C428.7 72 471.3 67 514.2 63C557 59 600 56 642.8 54.7C685.7 53.3 728.3 53.7 771.2 57.8C814 62 857 70 878.5 74L900 78L900 101L878.5 101C857 101 814 101 771.2 101C728.3 101 685.7 101 642.8 101C600 101 557 101 514.2 101C471.3 101 428.7 101 385.8 101C343 101 300 101 257.2 101C214.3 101 171.7 101 128.8 101C86 101 43 101 21.5 101L0 101Z" fill="#f57c00"></path></svg>