<svg id="visual" viewBox="0 0 900 100" width="900" height="100" xmlns="http://www.w3.org/2000/svg" xmlns:xlink="http://www.w3.org/1999/xlink" version="1.1"><rect x="0" y="0" width="900" height="100" fill="#263238"></rect><path d="M0 43L25 39.7C50 36.3 100 29.7 150 32.7C200 35.7 250 48.3 300 48.7C350 49 400 37 450 32C500 27 550 29 600 35.2C650 41.3 700 51.7 750 53.7C800 55.7 850 49.3 875 46.2L900 43L900 101L875 101C850 101 800 101 750 101C700 101 650 101 600 101C550 101 500 101 450 101C400 101 350 101 300 101C250 101 200 101 150 101C100 101 50 101 25 101L0 101Z" fill="#03a9f4"></path><path d="M0 65L25 65.2C50 65.3 100 65.7 150 63.8C200 62 250 58 300 60.7C350 63.3 400 72.7 450 74C500 75.3 550 68.7 600 65.5C650 62.3 700 62.7 750 60.8C800 59 850 55 875 53L900 51L900 101L875 101C850 101 800 101 750 101C700 101 650 101 600 101C550 101 500 101 450 101C400 101 350 101 300 101C250 101 200 101 150 101C100 101 50 101 25 101L0 101Z" fill="#67daff"></path></svg>