<svg id="visual" viewBox="0 0 900 100" width="900" height="100" xmlns="http://www.w3.org/2000/svg" xmlns:xlink="http://www.w3.org/1999/xlink" version="1.1"><rect x="0" y="0" width="900" height="100" fill="#002233"></rect><path d="M0 78L21.5 77.7C43 77.3 86 76.7 128.8 73.7C171.7 70.7 214.3 65.3 257.2 60.7C300 56 343 52 385.8 50.5C428.7 49 471.3 50 514.2 52.5C557 55 600 59 642.8 60.3C685.7 61.7 728.3 60.3 771.2 61.3C814 62.3 857 65.7 878.5 67.3L900 69L900 0L878.5 0C857 0 814 0 771.2 0C728.3 0 685.7 0 642.8 0C600 0 557 0 514.2 0C471.3 0 428.7 0 385.8 0C343 0 300 0 257.2 0C214.3 0 171.7 0 128.8 0C86 0 43 0 21.5 0L0 0Z" fill="#99c2ff"></path><path d="M0 42L21.5 39C43 36 86 30 128.8 28.5C171.7 27 214.3 30 257.2 33C300 36 343 39 385.8 40.3C428.7 41.7 471.3 41.3 514.2 38.2C557 35 600 29 642.8 29.3C685.7 29.7 728.3 36.3 771.2 36C814 35.7 857 28.3 878.5 24.7L900 21L900 0L878.5 0C857 0 814 0 771.2 0C728.3 0 685.7 0 642.8 0C600 0 557 0 514.2 0C471.3 0 428.7 0 385.8 0C343 0 300 0 257.2 0C214.3 0 171.7 0 128.8 0C86 0 43 0 21.5 0L0 0Z" fill="#0066ff"></path></svg>