<svg id="visual" viewBox="0 0 960 540" width="960" height="540" xmlns="http://www.w3.org/2000/svg" xmlns:xlink="http://www.w3.org/1999/xlink" version="1.1"><rect x="0" y="0" width="960" height="540" fill="#001220"></rect><path d="M0 334L22.8 331.7C45.7 329.3 91.3 324.7 137 330.8C182.7 337 228.3 354 274 354.2C319.7 354.3 365.3 337.7 411.2 332.8C457 328 503 335 548.8 334.3C594.7 333.7 640.3 325.3 686 331.8C731.7 338.3 777.3 359.7 823 371.8C868.7 384 914.3 387 937.2 388.5L960 390L960 541L937.2 541C914.3 541 868.7 541 823 541C777.3 541 731.7 541 686 541C640.3 541 594.7 541 548.8 541C503 541 457 541 411.2 541C365.3 541 319.7 541 274 541C228.3 541 182.7 541 137 541C91.3 541 45.7 541 22.8 541L0 541Z" fill="#4b50ff"></path><path d="M0 357L22.8 367.8C45.7 378.7 91.3 400.3 137 401.3C182.7 402.3 228.3 382.7 274 380.2C319.7 377.7 365.3 392.3 411.2 390.8C457 389.3 503 371.7 548.8 366.3C594.7 361 640.3 368 686 377C731.7 386 777.3 397 823 405.3C868.7 413.7 914.3 419.3 937.2 422.2L960 425L960 541L937.2 541C914.3 541 868.7 541 823 541C777.3 541 731.7 541 686 541C640.3 541 594.7 541 548.8 541C503 541 457 541 411.2 541C365.3 541 319.7 541 274 541C228.3 541 182.7 541 137 541C91.3 541 45.7 541 22.8 541L0 541Z" fill="#4243fb"></path><path d="M0 411L22.8 412.7C45.7 414.3 91.3 417.7 137 425.5C182.7 433.3 228.3 445.7 274 442C319.7 438.3 365.3 418.7 411.2 409.7C457 400.7 503 402.3 548.8 411C594.7 419.7 640.3 435.3 686 443.5C731.7 451.7 777.3 452.3 823 452C868.7 451.7 914.3 450.3 937.2 449.7L960 449L960 541L937.2 541C914.3 541 868.7 541 823 541C777.3 541 731.7 541 686 541C640.3 541 594.7 541 548.8 541C503 541 457 541 411.2 541C365.3 541 319.7 541 274 541C228.3 541 182.7 541 137 541C91.3 541 45.7 541 22.8 541L0 541Z" fill="#3835f7"></path><path d="M0 462L22.8 465.3C45.7 468.7 91.3 475.3 137 474.3C182.7 473.3 228.3 464.7 274 460.5C319.7 456.3 365.3 456.7 411.2 455.5C457 454.3 503 451.7 548.8 449.8C594.7 448 640.3 447 686 446C731.7 445 777.3 444 823 449.3C868.7 454.7 914.3 466.3 937.2 472.2L960 478L960 541L937.2 541C914.3 541 868.7 541 823 541C777.3 541 731.7 541 686 541C640.3 541 594.7 541 548.8 541C503 541 457 541 411.2 541C365.3 541 319.7 541 274 541C228.3 541 182.7 541 137 541C91.3 541 45.7 541 22.8 541L0 541Z" fill="#2e24f2"></path><path d="M0 479L22.8 481C45.7 483 91.3 487 137 491C182.7 495 228.3 499 274 502.3C319.7 505.7 365.3 508.3 411.2 508.7C457 509 503 507 548.8 505.8C594.7 504.7 640.3 504.3 686 501.7C731.7 499 777.3 494 823 496C868.7 498 914.3 507 937.2 511.5L960 516L960 541L937.2 541C914.3 541 868.7 541 823 541C777.3 541 731.7 541 686 541C640.3 541 594.7 541 548.8 541C503 541 457 541 411.2 541C365.3 541 319.7 541 274 541C228.3 541 182.7 541 137 541C91.3 541 45.7 541 22.8 541L0 541Z" fill="#2307ed"></path></svg>