<svg id="visual" viewBox="0 0 960 100" width="960" height="100" xmlns="http://www.w3.org/2000/svg" xmlns:xlink="http://www.w3.org/1999/xlink" version="1.1"><rect x="0" y="0" width="960" height="100" fill="#002233"></rect><path d="M0 35L14.5 40.3C29 45.7 58 56.3 87.2 61.2C116.3 66 145.7 65 174.8 60.8C204 56.7 233 49.3 262 48.3C291 47.3 320 52.7 349 53C378 53.3 407 48.7 436.2 44.8C465.3 41 494.7 38 523.8 38.8C553 39.7 582 44.3 611 50.2C640 56 669 63 698 61.8C727 60.7 756 51.3 785.2 44C814.3 36.7 843.7 31.3 872.8 31C902 30.7 931 35.3 945.5 37.7L960 40L960 101L945.5 101C931 101 902 101 872.8 101C843.7 101 814.3 101 785.2 101C756 101 727 101 698 101C669 101 640 101 611 101C582 101 553 101 523.8 101C494.7 101 465.3 101 436.2 101C407 101 378 101 349 101C320 101 291 101 262 101C233 101 204 101 174.8 101C145.7 101 116.3 101 87.2 101C58 101 29 101 14.5 101L0 101Z" fill="#0066FF" stroke-linecap="round" stroke-linejoin="miter"></path></svg>